<svg width="73" height="113" viewBox="0 0 73 113" fill="none" xmlns="http://www.w3.org/2000/svg">
<path d="M42 83.5499C28 79.5499 20.5332 86.7229 18.5497 90.8094C20.3665 93.5562 25.1 99.6499 29.5 102.05C33.9 104.45 47.6667 101.05 54 99.0499C53.6667 96.3031 50.8 89.3575 42 83.5499Z" fill="url(#paint0_linear_13_3)"/>
<path d="M14.3935 61.3941C17.929 57.2794 24.1 46.5499 20.5 36.5499C17.3 27.7169 12.1667 25.5086 10 25.5086C7.33333 28.6891 2 36.7499 2 43.5499C2 50.3499 9.62191 58.2794 13.4329 61.3941H14.3935Z" fill="url(#paint1_linear_13_3)"/>
<path d="M39 11.0499C30.6 19.0499 30.8333 33.3833 32 39.5499H33.5757C54 39.5499 61.4213 24.3833 61.5 19.0499L64 0.549927C58 1.04993 44.6 3.84993 39 11.0499Z" fill="url(#paint2_linear_13_3)"/>
<path d="M49.5 48.0499C40.7 46.8499 32.5 56.4461 29.5 61.3941C29.5 64.4695 45.1667 67.7794 53 69.0499L49.5 61.3941L57.5 66.5499C57.5 66.5499 65.1 65.1499 71.5 57.5499C61.5 49.9499 55 49.3833 53 50.0499L46 54.0499C47.1667 52.7166 49.5 49.6499 49.5 48.0499Z" fill="url(#paint3_linear_13_3)"/>
<path d="M0 112.05C1.57936 108.005 3.57329 103.066 5.88761 97.5499M53 11.0499C49.4787 14.7565 45.7686 19.7225 42 25.5086M5.88761 97.5499C4.19769 93.1499 1.25841 86.3833 0 83.5499M5.88761 97.5499C8.38842 91.5899 11.2633 84.9565 14.3935 78.0499M5.88761 97.5499C7.97202 95.1115 11.546 92.0924 18.5497 90.8094M42 92.0499C31.5054 89.8636 23.9921 89.8123 18.5497 90.8094M33.5757 39.5499C28.3824 48.8301 23.2612 59.042 18.5497 69.0499C17.1237 72.0791 15.7351 75.0896 14.3935 78.0499M18.5497 69.0499C20.3398 66.878 24.0247 63.8511 29.5 61.3941M57.5 57.5499C45.6064 56.2284 36.2091 58.3835 29.5 61.3941M12 36.5499L13.4329 61.3941M14.3935 78.0499L13.4329 61.3941M18.5497 90.8094C20.5332 86.7229 28 79.5499 42 83.5499C50.8 89.3575 53.6667 96.3031 54 99.0499C47.6667 101.05 33.9 104.45 29.5 102.05C25.1 99.6499 20.3665 93.5562 18.5497 90.8094ZM29.5 61.3941C32.5 56.4461 40.7 46.8499 49.5 48.0499C49.5 49.6499 47.1667 52.7166 46 54.0499L53 50.0499C55 49.3833 61.5 49.9499 71.5 57.5499C65.1 65.1499 57.5 66.5499 57.5 66.5499L49.5 61.3941L53 69.0499C45.1667 67.7794 29.5 64.4695 29.5 61.3941ZM33.5757 39.5499C54 39.5499 61.4213 24.3833 61.5 19.0499L64 0.549927C58 1.04993 44.6 3.84993 39 11.0499C30.6 19.0499 30.8333 33.3833 32 39.5499H33.5757ZM33.5757 39.5499C36.3805 34.5381 39.2063 29.798 42 25.5086M42 25.5086V11.0499M42 25.5086L59 22.0499M13.4329 61.3941C9.62191 58.2794 2 50.3499 2 43.5499C2 36.7499 7.33333 28.6891 10 25.5086C12.1667 25.5086 17.3 27.7169 20.5 36.5499C24.1 46.5499 17.929 57.2794 14.3935 61.3941H13.4329Z" stroke="#9EC866"/>
<defs>
<linearGradient id="paint0_linear_13_3" x1="35.75" y1="0.549927" x2="35.75" y2="112.05" gradientUnits="userSpaceOnUse">
<stop stop-color="#92BB61"/>
<stop offset="1" stop-color="#59922F"/>
</linearGradient>
<linearGradient id="paint1_linear_13_3" x1="35.75" y1="0.549927" x2="35.75" y2="112.05" gradientUnits="userSpaceOnUse">
<stop stop-color="#92BB61"/>
<stop offset="1" stop-color="#59922F"/>
</linearGradient>
<linearGradient id="paint2_linear_13_3" x1="35.75" y1="0.549927" x2="35.75" y2="112.05" gradientUnits="userSpaceOnUse">
<stop stop-color="#92BB61"/>
<stop offset="1" stop-color="#59922F"/>
</linearGradient>
<linearGradient id="paint3_linear_13_3" x1="35.75" y1="0.549927" x2="35.75" y2="112.05" gradientUnits="userSpaceOnUse">
<stop stop-color="#92BB61"/>
<stop offset="1" stop-color="#59922F"/>
</linearGradient>
</defs>
</svg>
