<svg width="196" height="132" viewBox="0 0 196 132" fill="none" xmlns="http://www.w3.org/2000/svg">
<path d="M169.376 86.2513C188.976 51.8513 165.209 38.918 150.876 36.7513C180.076 27.9513 193.042 47.0847 195.876 57.7513C196.676 86.9513 184.542 98.918 178.376 101.251C175.209 96.2513 168.976 86.2513 169.376 86.2513Z" fill="#279745"/>
<path d="M31.3757 32.7512C30.7091 31.0845 26.8757 25.3512 16.8757 15.7512C70.0757 -11.4488 90.0424 22.4178 93.3757 42.7512L99.3757 49.7512C122.376 22.7512 141.876 19.7512 141.876 19.2512C171.476 11.2512 188.209 33.5845 192.876 45.7512C180.876 28.5512 162.542 28.9178 154.876 31.2512C138.076 35.6512 123.542 48.7512 118.376 54.7512C109.976 63.5512 85.5424 89.4178 74.3757 101.251C61.5757 112.051 44.3757 112.751 37.3757 111.751C18.9757 110.551 8.0424 93.5845 4.87573 85.2512C20.8757 101.251 34.2091 101.251 38.8757 99.2512C71.8757 87.7512 92.8757 54.7512 93.3757 54.7512C81.3757 25.7512 46.3757 21.7512 46.8757 21.7512C67.2757 29.7512 80.3757 47.0845 84.3757 54.7512C60.3757 62.7512 47.0424 54.7512 43.3757 49.7512C37.7757 44.5512 33.0424 36.2512 31.3757 32.7512Z" fill="#66B327"/>
<path d="M30.3757 42.2512L20.8757 26.7512C8.87572 32.3512 2.87576 47.0846 1.37578 53.7512C-2.62422 66.9512 3.04244 78.5846 6.37578 82.7512C16.3758 98.7512 36.5424 96.4179 45.3757 93.2512C7.37572 82.4512 19.5424 54.7512 30.3757 42.2512Z" fill="#279745"/>
<path d="M94.8756 14.2511C92.8756 22.6511 95.0423 30.0845 96.3756 32.7511C98.3756 22.3511 106.542 14.0845 110.376 11.2512C103.576 21.2512 101.542 29.7512 101.376 32.7511C118.176 31.9511 121.709 18.7512 121.376 12.2512C121.376 2.75122 124.376 0.751146 124.376 0.251146C101.876 -2.24885 94.8756 14.7511 94.8756 14.2511Z" fill="#279944"/>
<path d="M161.376 83.7513C142.576 58.9513 120.876 64.7513 112.376 70.7513C118.876 86.7514 148.376 103.251 148.876 103.251C124.876 100.851 109.209 80.5846 104.376 70.7513C81.9757 99.5514 61.7091 113.751 54.3757 117.251L64.8757 121.251V131.251C89.6757 118.051 94.2091 105.085 93.3757 100.251H87.3757L99.3757 83.7513L110.876 101.251C108.709 101.418 104.376 101.651 104.376 101.251C105.176 116.451 123.376 127.585 132.376 131.251C132.209 126.585 131.976 117.251 132.376 117.251C152.776 124.851 173.876 115.085 181.876 109.251C177.076 108.051 173.209 104.751 171.876 103.251C165.876 90.2512 161.376 84.2513 161.376 83.7513Z" fill="#279745"/>
</svg>
