<svg width="390" height="186" viewBox="0 0 390 186" fill="none" xmlns="http://www.w3.org/2000/svg">
<path d="M111.543 90.8926C19.6123 53.1771 -9.79012 65.5394 -13 76.435V131.122C-2.5144 125.884 27.5728 120.688 64.037 141.808C83.9383 165.695 136.58 180.572 169.321 185.81H183.057C206.462 184.621 242.916 177.516 268.827 155.009C308.63 120.436 366.407 68.8918 403 84.6066V1.00392C366.022 -7.54494 313.551 40.6052 291.938 65.7489C270.111 89.8449 203.474 128.608 111.543 90.8926Z" fill="#EAF0E2"/>
<path d="M403 185.81V84.6066C366.407 68.8918 308.63 120.436 268.827 155.009C242.916 177.516 206.462 184.621 183.057 185.81H403Z" fill="#DEE8D2"/>
<path d="M-13 131.122V185.81H169.321C136.58 180.572 83.9383 165.695 64.037 141.808C27.5728 120.688 -2.5144 125.884 -13 131.122Z" fill="#DEE8D2"/>
</svg>
