<svg width="60" height="100" viewBox="0 0 60 100" fill="none" xmlns="http://www.w3.org/2000/svg">
<path d="M12.6641 85.4385C18.0887 78.4316 32.7358 68.622 47.9248 85.4385C45.2127 89.2355 40.4661 91.0888 38.4316 91.541C35.7194 90.8629 29.752 88.6932 27.582 85.4385C24.8697 81.37 30.2945 92.8971 33.0068 93.5752C35.7177 94.2533 15.3765 94.9312 12.6641 85.4385ZM-7 37.9727C-1.57529 40.9112 8.18829 50.0426 3.84863 63.0615C-4.8304 63.0614 -6.99995 60.3493 -7 58.9932V37.9727ZM21.4795 57.0557C30.159 35.8996 50.4111 42.3635 59.4521 48.2402C55.1124 58.547 41.8215 56.604 35.7188 54.3438C35.7192 57.5983 40.2398 59.7682 42.5 60.4463C37.0755 61.5312 26.2263 58.6379 21.4795 57.0557ZM9.19531 0C15.9761 5.87678 26.4181 22.1055 13.9414 40.0068C6.4825 34.8081 -4.90865 19.5286 9.19531 0ZM27.582 31.2881C25.4125 15.5571 39.7872 12.9802 47.2461 13.6582C47.7886 29.3896 34.3629 31.9661 27.582 31.2881Z" fill="url(#paint0_linear_378_85)"/>
<path d="M37.8333 21.1905C28.4612 27.0987 20.2415 40.9539 13.7409 56M46 49.8571C36.6747 50.9947 16.194 56.273 8.8732 68.2857M13.7409 56C11.9899 60.0528 10.3637 64.1921 8.8732 68.2857C7.52223 71.9962 6.28285 75.6692 5.16328 79.2064M36.4722 83.3016C26.2639 82.3915 4.62222 84.2571 -0.277778 99C0.939919 93.6498 2.78013 86.7358 5.16328 79.2064M-3 51.2222C0.854227 56.6812 7.8828 69.9205 5.16328 79.2064M11.9722 13C13.6051 24.7811 16.2448 49.8747 13.7409 56" stroke="#BDD5A5"/>
<defs>
<linearGradient id="paint0_linear_378_85" x1="26.2261" y1="0" x2="26.2261" y2="93.9253" gradientUnits="userSpaceOnUse">
<stop stop-color="#96BB68"/>
<stop offset="1" stop-color="#59922F"/>
</linearGradient>
</defs>
</svg>
