<svg width="106" height="87" viewBox="0 0 106 87" fill="none" xmlns="http://www.w3.org/2000/svg">
<path d="M68.6045 20.2128C77.3142 31.8807 87.6009 30.7022 91.6555 28.6544C91.8757 25.3685 91.805 17.6527 89.7605 13.0767C87.7159 8.50066 74.7059 2.85957 68.4565 0.611018C67.0565 2.99771 65.1261 10.2594 68.6045 20.2128Z" fill="url(#paint0_linear_13_4)"/>
<path d="M77.1299 54.5685C71.8238 55.6978 60.4117 60.4904 57.213 70.6259C54.4036 79.5908 57.1476 84.4589 58.8708 85.7723C62.9196 84.8593 72.0477 81.6813 76.1698 76.2731C80.2919 70.865 79.0367 59.9382 77.8939 55.1508L77.1299 54.5685Z" fill="url(#paint1_linear_13_4)"/>
<path d="M27.0418 79.6921C38.572 78.4215 47.0751 66.8805 49.8854 61.2688L48.6322 60.3136C32.3883 47.9326 17.2922 55.4963 13.9966 59.6903L0.793774 72.8883C5.8688 76.1278 18.2234 82.0238 27.0418 79.6921Z" fill="url(#paint2_linear_13_4)"/>
<path d="M41.1199 43.9003C47.3913 50.1891 59.73 47.5278 65.1154 45.4111C66.9797 42.9652 56.526 30.8358 51.0662 25.0768L49.209 33.2873L45.9718 24.3373C45.9718 24.3373 39.0787 20.8437 29.3816 23.0086C32.7278 35.1149 37.5539 39.5058 39.5486 40.1879L47.5406 41.25C45.8045 41.6032 42.0898 42.6277 41.1199 43.9003Z" fill="url(#paint3_linear_13_4)"/>
<path d="M119.284 23.006C115.576 25.266 110.996 27.9854 105.812 30.9692M15.9073 71.2055C20.9547 70.3921 26.9158 68.6916 33.4205 66.3742M105.812 30.9692C104.489 35.493 102.725 42.6564 102.008 45.6727M105.812 30.9692C100.21 34.1934 93.9026 37.7263 87.2265 41.3218M105.812 30.9692C102.676 31.645 98.0035 31.8796 91.6555 28.6544M73.7571 13.4525C80.7783 21.5531 86.7227 26.1483 91.6555 28.6544M48.6322 60.3136C58.3881 56.081 68.6514 51.0636 78.4652 45.9602C81.4357 44.4155 84.3649 42.8629 87.2265 41.3218M78.4652 45.9602C75.725 46.6025 70.9595 46.7761 65.1154 45.4111M40.5161 31.4952C49.1742 39.756 57.9545 43.7385 65.1154 45.4111M63.9733 75.7785L77.8939 55.1508M87.2265 41.3218L77.8939 55.1508M91.6555 28.6544C87.6009 30.7022 77.3142 31.8807 68.6045 20.2128C65.1261 10.2594 67.0565 2.99771 68.4565 0.611018C74.7059 2.85957 87.7159 8.50067 89.7605 13.0767C91.805 17.6527 91.8757 25.3685 91.6555 28.6544ZM65.1154 45.4111C59.73 47.5278 47.3913 50.1891 41.1199 43.9003C42.0898 42.6277 45.8045 41.6032 47.5406 41.25L39.5486 40.1879C37.5539 39.5058 32.7278 35.1149 29.3816 23.0086C39.0787 20.8437 45.9718 24.3373 45.9718 24.3373L49.209 33.2873L51.0662 25.0768C56.526 30.8358 66.9797 42.9652 65.1154 45.4111ZM48.6322 60.3136C32.3883 47.9326 17.2922 55.4963 13.9966 59.6903L0.793774 72.8883C5.8688 76.1278 18.2234 82.0238 27.0418 79.6921C38.572 78.4215 47.0751 66.8805 49.8854 61.2688L48.6322 60.3136ZM48.6322 60.3136C43.3634 62.5994 38.2426 64.6563 33.4205 66.3742M33.4205 66.3742L24.6558 77.8735M33.4205 66.3742L17.8034 58.8198M77.8939 55.1508C79.0367 59.9382 80.2919 70.8649 76.1698 76.2731C72.0477 81.6813 62.9196 84.8593 58.8708 85.7723C57.1476 84.4589 54.4036 79.5908 57.213 70.6259C60.4117 60.4904 71.8238 55.6978 77.1299 54.5685L77.8939 55.1508Z" stroke="#9EC866"/>
<defs>
<linearGradient id="paint0_linear_13_4" x1="90.8516" y1="1.33478" x2="23.2616" y2="90.0131" gradientUnits="userSpaceOnUse">
<stop stop-color="#92BB61"/>
<stop offset="1" stop-color="#59922F"/>
</linearGradient>
<linearGradient id="paint1_linear_13_4" x1="90.8516" y1="1.33478" x2="23.2616" y2="90.0131" gradientUnits="userSpaceOnUse">
<stop stop-color="#92BB61"/>
<stop offset="1" stop-color="#59922F"/>
</linearGradient>
<linearGradient id="paint2_linear_13_4" x1="90.8516" y1="1.33478" x2="23.2616" y2="90.0131" gradientUnits="userSpaceOnUse">
<stop stop-color="#92BB61"/>
<stop offset="1" stop-color="#59922F"/>
</linearGradient>
<linearGradient id="paint3_linear_13_4" x1="90.8516" y1="1.33478" x2="23.2616" y2="90.0131" gradientUnits="userSpaceOnUse">
<stop stop-color="#92BB61"/>
<stop offset="1" stop-color="#59922F"/>
</linearGradient>
</defs>
</svg>
