<svg width="390" height="110" viewBox="0 0 390 110" fill="none" xmlns="http://www.w3.org/2000/svg">
<path d="M-7 23.3112V110L388.829 109.272L390 0H387.658H380.631H368.92L356.624 2.18543L346.084 5.09934L338.472 8.74172L325.004 14.5695L312.708 21.8543L294.556 34.9669L280.503 45.1656L262.937 54.6358L244.785 62.649L233.074 67.7484L218.435 71.3908L202.625 72.8477C201.454 73.0905 195.365 72.2649 185.059 72.8477C174.753 73.4305 159.685 67.5055 154.025 64.8345L139.972 56.0927L111.866 40.0662L89.615 29.8676C89.8102 29.6247 86.336 27.9735 73.2198 23.3112C60.1035 18.649 14.47 21.3686 -7 23.3112Z" fill="#EAF0E2"/>
</svg>
