<svg width="13" height="18" viewBox="0 0 13 18" fill="none" xmlns="http://www.w3.org/2000/svg">
<path d="M7.12402 10.0078C8.92418 10.2328 11.9439 11.9378 12.4941 16.8896C12.5551 17.4385 12.1592 17.9332 11.6104 17.9941C11.0615 18.0551 10.5668 17.6592 10.5059 17.1104C10.0636 13.1307 7.81993 12.1355 6.9209 12H6C4.40912 12 3.45859 12.7627 2.85742 13.7646C2.22498 14.8188 2 16.1275 2 17C2 17.5523 1.55228 18 1 18C0.447715 18 0 17.5523 0 17C0 15.8725 0.275085 14.1812 1.14258 12.7354C2.04142 11.2374 3.59096 10 6 10H7.0625L7.12402 10.0078ZM6 0C8.20914 0 10 1.79086 10 4C10 6.20914 8.20914 8 6 8C3.79086 8 2 6.20914 2 4C2 1.79086 3.79086 0 6 0ZM6 2C4.89543 2 4 2.89543 4 4C4 5.10457 4.89543 6 6 6C7.10457 6 8 5.10457 8 4C8 2.89543 7.10457 2 6 2Z" fill="#709955"/>
</svg>
